<svg xmlns="http://www.w3.org/2000/svg" version="1.1" x="0" y="0" width="240" height="40" viewBox="0" enable-background="new 0 0 240 40" xml:space="preserve"><desc>Icon Font</desc><g id="github_icon" transform="scale(1 -1) translate(0 -1280)"><path d="M38.36 1259.61c0-4.07-1.19-7.72-3.56-10.97 -2.37-3.25-5.44-5.5-9.2-6.74 -0.44-0.08-0.76-0.02-0.96 0.17 -0.2 0.19-0.3 0.44-0.3 0.73v5.13c0 1.57-0.42 2.72-1.26 3.45 0.92 0.1 1.75 0.24 2.49 0.44 0.74 0.2 1.5 0.51 2.28 0.95 0.79 0.44 1.44 0.98 1.97 1.62s0.96 1.49 1.29 2.55c0.33 1.06 0.5 2.28 0.5 3.66 0 1.96-0.64 3.63-1.92 5.01 0.6 1.47 0.53 3.13-0.19 4.96 -0.45 0.15-1.11 0.06-1.97-0.27 -0.86-0.32-1.6-0.68-2.23-1.07l-0.92-0.58c-1.51 0.42-3.06 0.63-4.66 0.63s-3.16-0.21-4.66-0.63c-0.26 0.18-0.6 0.4-1.03 0.66 -0.43 0.26-1.1 0.57-2.03 0.94 -0.92 0.36-1.62 0.47-2.09 0.33 -0.71-1.83-0.77-3.48-0.17-4.96 -1.28-1.38-1.92-3.04-1.92-5 0-1.38 0.17-2.59 0.5-3.64s0.76-1.9 1.28-2.55c0.52-0.65 1.17-1.19 1.96-1.63 0.79-0.44 1.55-0.75 2.28-0.95 0.74-0.19 1.57-0.34 2.49-0.44 -0.65-0.58-1.04-1.42-1.19-2.5 -0.34-0.16-0.7-0.28-1.09-0.36 -0.39-0.08-0.85-0.12-1.38-0.12 -0.53 0-1.06 0.17-1.59 0.52 -0.53 0.35-0.98 0.86-1.35 1.52 -0.31 0.52-0.7 0.94-1.18 1.26 -0.48 0.32-0.88 0.52-1.2 0.58l-0.49 0.07c-0.34 0-0.57-0.04-0.7-0.11 -0.13-0.07-0.17-0.17-0.12-0.28 0.05-0.11 0.12-0.23 0.22-0.34 0.1-0.11 0.2-0.21 0.32-0.29l0.17-0.12c0.36-0.16 0.71-0.47 1.06-0.92 0.35-0.45 0.6-0.87 0.77-1.24l0.24-0.56c0.21-0.62 0.57-1.11 1.07-1.49 0.5-0.38 1.05-0.62 1.63-0.73 0.58-0.1 1.15-0.16 1.69-0.17 0.54-0.01 0.99 0.02 1.35 0.09l0.56 0.1c0-0.61 0-1.34 0.01-2.16 0.01-0.83 0.01-1.26 0.01-1.31 0-0.29-0.1-0.53-0.32-0.73 -0.21-0.19-0.53-0.25-0.97-0.17 -3.76 1.25-6.82 3.5-9.2 6.74s-3.56 6.91-3.56 10.97c0 3.39 0.83 6.51 2.5 9.37 1.67 2.86 3.93 5.12 6.79 6.79 2.86 1.67 5.98 2.5 9.37 2.5 3.39 0 6.51-0.83 9.37-2.5 2.86-1.67 5.12-3.93 6.79-6.79C37.53 1266.12 38.36 1262.99 38.36 1259.61z"/></g><g id="dribbble_icon" class="grey" transform="scale(1 -1) translate(0 -1280)"><path d="M66.15 1245.26c-0.63 3.62-1.68 7.37-3.16 11.23h-0.04l-0.04-0.02c-0.24-0.09-0.56-0.21-0.97-0.37 -0.41-0.16-1.16-0.53-2.28-1.1 -1.11-0.58-2.14-1.19-3.09-1.85 -0.95-0.65-1.93-1.51-2.95-2.58 -1.02-1.07-1.8-2.18-2.32-3.34l-0.34 0.25c2.77-2.25 5.91-3.38 9.43-3.38C62.36 1244.09 64.28 1244.48 66.15 1245.26zM61.98 1258.95c-0.31 0.74-0.71 1.57-1.19 2.5 -4.68-1.4-9.73-2.1-15.18-2.1 -0.01-0.1-0.02-0.26-0.02-0.47 0-1.86 0.33-3.64 0.99-5.33 0.66-1.69 1.59-3.21 2.8-4.54 0.75 1.34 1.68 2.59 2.79 3.75 1.11 1.17 2.18 2.1 3.21 2.81s2.02 1.32 2.94 1.83 1.67 0.87 2.24 1.08l0.83 0.29c0.06 0.02 0.16 0.04 0.29 0.08C61.82 1258.89 61.92 1258.92 61.98 1258.95zM59.56 1263.73c-1.8 3.2-3.64 6.04-5.5 8.52 -2.08-0.98-3.83-2.37-5.28-4.19 -1.44-1.82-2.41-3.86-2.89-6.13C50.44 1261.93 54.99 1262.53 59.56 1263.73zM74.99 1256.54c-3.16 0.9-6.23 1.12-9.22 0.65 1.31-3.59 2.27-7.12 2.89-10.58 1.67 1.13 3.06 2.55 4.17 4.27C73.93 1252.61 74.66 1254.49 74.99 1256.54zM56.83 1273.25c-0.02 0-0.03-0.01-0.04-0.02C56.8 1273.24 56.82 1273.25 56.83 1273.25zM70.14 1269.98c-2.78 2.47-6.04 3.7-9.76 3.7 -1.14 0-2.31-0.14-3.5-0.43 1.97-2.56 3.82-5.43 5.55-8.61 1.04 0.39 2.02 0.85 2.93 1.36s1.64 0.98 2.18 1.39c0.53 0.41 1.03 0.83 1.48 1.29 0.45 0.45 0.73 0.76 0.85 0.91L70.14 1269.98zM75.17 1259.04c-0.04 3.49-1.17 6.57-3.36 9.25l-0.02-0.02c-0.13-0.18-0.28-0.36-0.43-0.55 -0.15-0.19-0.48-0.52-0.98-1 -0.5-0.48-1.04-0.94-1.6-1.36 -0.56-0.43-1.31-0.92-2.25-1.47 -0.94-0.55-1.93-1.03-2.96-1.45 0.38-0.8 0.71-1.51 0.99-2.14 0.03-0.09 0.08-0.22 0.15-0.39 0.07-0.17 0.13-0.3 0.17-0.37 0.54 0.08 1.1 0.13 1.68 0.16 0.58 0.03 1.13 0.04 1.66 0.04 0.53 0 1.04-0.01 1.56-0.03 0.51-0.02 0.99-0.05 1.44-0.09 0.45-0.04 0.88-0.08 1.27-0.12 0.4-0.04 0.76-0.09 1.08-0.15 0.32-0.05 0.6-0.1 0.82-0.13 0.23-0.04 0.41-0.07 0.56-0.1L75.17 1259.04zM77.69 1258.88c0-3.14-0.77-6.04-2.32-8.69 -1.55-2.65-3.65-4.75-6.3-6.3 -2.65-1.55-5.55-2.32-8.69-2.32 -3.14 0-6.04 0.77-8.69 2.32 -2.65 1.55-4.75 3.65-6.3 6.3 -1.55 2.65-2.32 5.55-2.32 8.69 0 3.14 0.77 6.04 2.32 8.69 1.55 2.65 3.65 4.75 6.3 6.3 2.65 1.55 5.55 2.32 8.69 2.32 3.14 0 6.04-0.77 8.69-2.32 2.65-1.55 4.75-3.65 6.3-6.3C76.92 1264.92 77.69 1262.02 77.69 1258.88z"/></g><g id="rss_icon" class="grey" transform="scale(1 -1) translate(0 -1280)"><path d="M94.28 1248.51c0-1.2-0.42-2.22-1.26-3.06 -0.84-0.84-1.86-1.26-3.06-1.26s-2.22 0.42-3.06 1.26c-0.84 0.84-1.26 1.86-1.26 3.06s0.42 2.22 1.26 3.06c0.84 0.84 1.86 1.26 3.06 1.26s2.22-0.42 3.06-1.26C93.86 1250.73 94.28 1249.71 94.28 1248.51zM105.79 1245.75c0.03-0.42-0.1-0.78-0.38-1.08 -0.27-0.31-0.62-0.47-1.06-0.47h-3.03c-0.37 0-0.7 0.12-0.97 0.37 -0.27 0.25-0.42 0.56-0.45 0.93 -0.33 3.43-1.71 6.37-4.15 8.8s-5.37 3.82-8.8 4.15c-0.37 0.03-0.69 0.18-0.93 0.45 -0.25 0.27-0.37 0.59-0.37 0.97v3.04c0 0.44 0.16 0.79 0.47 1.06 0.26 0.26 0.58 0.38 0.97 0.38h0.11c2.4-0.19 4.69-0.8 6.88-1.81 2.19-1.01 4.13-2.37 5.82-4.08 1.71-1.69 3.07-3.63 4.08-5.82C105 1250.44 105.6 1248.15 105.79 1245.75zM117.31 1245.7c0.03-0.4-0.1-0.76-0.4-1.06 -0.27-0.3-0.61-0.45-1.03-0.45h-3.21c-0.39 0-0.72 0.13-1 0.39s-0.42 0.58-0.44 0.96c-0.18 3.22-0.94 6.28-2.27 9.18 -1.33 2.9-3.07 5.42-5.2 7.55 -2.13 2.14-4.65 3.87-7.55 5.21 -2.9 1.33-5.96 2.1-9.18 2.29 -0.37 0.02-0.69 0.16-0.96 0.44 -0.26 0.28-0.39 0.6-0.39 0.98v3.22c0 0.42 0.15 0.76 0.45 1.03 0.27 0.27 0.6 0.41 0.99 0.41h0.07c3.93-0.19 7.69-1.09 11.27-2.7 3.59-1.6 6.78-3.81 9.57-6.61 2.8-2.79 5.01-5.98 6.61-9.57C116.21 1253.39 117.11 1249.63 117.31 1245.7z"/></g><g id="twitter_icon" class="grey" transform="scale(1 -1) translate(0 -1280)"><path d="M157.56 1270.22c-0.98-1.43-2.16-2.65-3.55-3.66 0.02-0.2 0.02-0.51 0.02-0.92 0-1.9-0.28-3.79-0.83-5.68 -0.56-1.89-1.4-3.71-2.53-5.44s-2.48-3.27-4.04-4.61 -3.45-2.4-5.65-3.2c-2.2-0.8-4.56-1.19-7.08-1.19 -3.96 0-7.58 1.06-10.86 3.18 0.51-0.06 1.08-0.09 1.71-0.09 3.29 0 6.21 1.01 8.78 3.02 -1.53 0.03-2.91 0.5-4.12 1.41 -1.21 0.91-2.04 2.08-2.5 3.49 0.48-0.07 0.93-0.11 1.34-0.11 0.63 0 1.25 0.08 1.86 0.24 -1.64 0.34-2.99 1.15-4.06 2.44 -1.07 1.29-1.61 2.79-1.61 4.5v0.09c0.99-0.56 2.06-0.85 3.2-0.9 -0.96 0.64-1.73 1.48-2.3 2.52 -0.57 1.04-0.85 2.16-0.85 3.37 0 1.29 0.32 2.48 0.96 3.57 1.77-2.18 3.92-3.92 6.45-5.22 2.53-1.31 5.25-2.03 8.14-2.18 -0.12 0.56-0.17 1.1-0.17 1.62 0 1.96 0.69 3.63 2.07 5.01 1.38 1.38 3.05 2.07 5.01 2.07 2.04 0 3.77-0.74 5.17-2.23 1.59 0.31 3.09 0.88 4.49 1.71 -0.54-1.68-1.58-2.98-3.11-3.9C154.84 1269.27 156.2 1269.64 157.56 1270.22z"/></g><g id="resume_icon" class="grey" transform="scale(1 -1) translate(0 -1280)"><path d="M228.05 1254.17v-1.34c0-0.19-0.06-0.36-0.19-0.48 -0.13-0.12-0.29-0.19-0.48-0.19h-14.76c-0.2 0-0.36 0.06-0.48 0.19 -0.12 0.13-0.19 0.29-0.19 0.48v1.34c0 0.2 0.06 0.36 0.19 0.48 0.13 0.13 0.29 0.19 0.48 0.19h14.76c0.2 0 0.36-0.06 0.48-0.19C227.99 1254.53 228.05 1254.37 228.05 1254.17zM228.05 1259.54v-1.34c0-0.2-0.06-0.36-0.19-0.48 -0.13-0.13-0.29-0.19-0.48-0.19h-14.76c-0.2 0-0.36 0.06-0.48 0.19 -0.12 0.13-0.19 0.29-0.19 0.48v1.34c0 0.2 0.06 0.36 0.19 0.48 0.13 0.13 0.29 0.19 0.48 0.19h14.76c0.2 0 0.36-0.06 0.48-0.19C227.99 1259.9 228.05 1259.74 228.05 1259.54zM209.26 1246.79h21.47v16.11h-8.72c-0.56 0-1.03 0.2-1.43 0.59 -0.39 0.39-0.59 0.87-0.59 1.43v8.72h-10.74V1246.79zM222.68 1265.58h7.89c-0.14 0.41-0.29 0.69-0.46 0.86l-6.56 6.56c-0.17 0.17-0.45 0.32-0.86 0.46V1265.58zM233.42 1264.91v-18.79c0-0.56-0.2-1.03-0.59-1.43 -0.39-0.39-0.87-0.59-1.43-0.59h-22.82c-0.56 0-1.03 0.2-1.43 0.59 -0.39 0.39-0.59 0.87-0.59 1.43v28.19c0 0.56 0.2 1.03 0.59 1.43 0.39 0.39 0.87 0.59 1.43 0.59h13.42c0.56 0 1.17-0.14 1.85-0.42 0.67-0.28 1.2-0.61 1.59-1.01l6.54-6.54c0.39-0.39 0.73-0.92 1.01-1.59S233.42 1265.47 233.42 1264.91z"/></g><g id="resume_arrow" fill="#939598" transform="scale(1 -1) translate(0 -1280)"><path d="M171.15 1266.31v-20.98h-6.99v20.98H171.15zM171.59 1272.79c0.02-1.03-0.34-1.89-1.07-2.58 -0.73-0.69-1.68-1.04-2.87-1.04h-0.04c-1.16 0-2.09 0.35-2.79 1.04 -0.71 0.69-1.06 1.55-1.06 2.58 0 1.04 0.36 1.91 1.09 2.59 0.73 0.68 1.68 1.03 2.85 1.03s2.11-0.34 2.82-1.03C171.22 1274.7 171.58 1273.83 171.59 1272.79zM196.28 1257.35v-12.02h-6.97v11.22c0 1.48-0.29 2.64-0.86 3.48 -0.57 0.84-1.46 1.26-2.68 1.26 -0.89 0-1.63-0.24-2.23-0.73 -0.6-0.49-1.05-1.09-1.34-1.81 -0.15-0.42-0.23-0.99-0.23-1.71v-11.71h-6.97c0.03 5.63 0.04 10.2 0.04 13.7 0 3.5-0.01 5.59-0.02 6.27l-0.02 1.02h6.97v-3.05h-0.04c0.28 0.45 0.57 0.85 0.87 1.19 0.3 0.34 0.7 0.71 1.2 1.1 0.5 0.4 1.12 0.7 1.84 0.92 0.73 0.22 1.54 0.33 2.42 0.33 2.41 0 4.35-0.8 5.82-2.4C195.54 1262.79 196.28 1260.45 196.28 1257.35z"/></g><g transform="scale(1 -1) translate(0 -1280)"><path fill="#4D4D4F" d="M230.13 1252.44c0-0.43-0.15-0.79-0.45-1.09l-7.9-7.92c-0.31-0.3-0.68-0.45-1.1-0.45 -0.43 0-0.79 0.15-1.09 0.45l-7.9 7.92c-0.31 0.29-0.46 0.66-0.46 1.09 0 0.43 0.15 0.8 0.46 1.1l0.9 0.91c0.32 0.3 0.69 0.45 1.11 0.45 0.43 0 0.79-0.15 1.09-0.45l3.57-3.57v8.55c0 0.42 0.15 0.79 0.46 1.09 0.31 0.31 0.67 0.46 1.09 0.46h1.56c0.42 0 0.79-0.15 1.09-0.46 0.31-0.31 0.46-0.67 0.46-1.09v-8.55l3.57 3.57c0.3 0.3 0.66 0.45 1.09 0.45 0.42 0 0.79-0.15 1.11-0.45l0.91-0.91C229.98 1253.22 230.13 1252.86 230.13 1252.44z"/></g></svg>