<svg xmlns="http://www.w3.org/2000/svg" width="236.5" height="70.9" viewBox="0" version="1.1" x="0" y="0" enable-background="new 0 0 236.5 70.9" xml:space="preserve"><?xml-stylesheet type="text/css" href="../style/styles.css"?><desc>Jose Menor logo</desc><g><path d="M10.7 69.6c-6 0-10-4.2-10-10.6V47h6.8v12.3c0 2.1 1 3.4 3 3.4s3-1.2 3-3.4V14.1h7.2V58.9C20.6 65.3 16.8 69.6 10.7 69.6zM35.7 69.6c-6.2 0-10.6-4.6-10.6-11.2V24.4c0-6.5 4.4-11.2 10.6-11.2 6.2 0 10.6 4.7 10.6 11.2v34C46.3 65 41.9 69.6 35.7 69.6zM39.1 23.8c0-2.1-1.2-3.5-3.4-3.5s-3.3 1.5-3.3 3.5v35.4c0 2.1 1.2 3.5 3.3 3.5s3.4-1.4 3.4-3.5V23.8zM60.4 69.6c-6.5 0-10.4-4.3-10.4-11.2v-5.9h6.6v6.2c0 2.9 1.2 4.6 3.6 4.6 2.5 0 3.8-1.6 3.8-4.4 0-5.1-2-9.2-5.8-14.8 -3.5-5-7.9-12.4-7.9-18.7 0-6.9 3.4-12.2 10.5-12.2 5.9 0 9.8 4.3 9.8 11.2v6.2h-6.5v-6.5c0-2.7-1.2-4.4-3.3-4.4 -2.1 0-3.5 1.4-3.5 3.9 0 6.1 2.1 9 6.2 15.2 4.2 6.2 7.5 12.3 7.5 18.7C70.9 66.3 65.6 69.6 60.4 69.6zM74.9 68.8V14.1h17.5v6.7H82.1v16.5h7.2v6.5h-7.2v18.2h10.4v6.8H74.9zM84.7 11.3h-3.5L83.9 0.9h5.8L84.7 11.3zM128.4 68.8V27.2l-1.2 11 -4.4 30.6h-5.5l-4.1-30.6 -1.2-11V68.8h-6.3V14.1h9.8l3.9 27.7 1.2 10.9 1.2-10.9 3.8-27.7h9.6V68.8H128.4zM140.4 68.8V14.1h17.5v6.7h-10.4v16.5h7.2v6.5h-7.2v18.2h10.4v6.8H140.4zM178.2 68.8l-7.7-26.2 -2.2-8.1V68.8h-6.5V14.1h6.7l6.9 26.3 2.1 8.2V14.1h6.4V68.8H178.2zM199.1 69.6c-6.2 0-10.6-4.6-10.6-11.2V24.4c0-6.5 4.4-11.2 10.6-11.2 6.2 0 10.6 4.7 10.6 11.2v34C209.7 65 205.3 69.6 199.1 69.6zM202.5 23.8c0-2.1-1.2-3.5-3.4-3.5s-3.3 1.5-3.3 3.5v35.4c0 2.1 1.2 3.5 3.3 3.5s3.4-1.4 3.4-3.5V23.8zM231.6 69.1c-2.6 0-3.7-3.3-3.7-7.2V48.8c0-1.9-1-3.4-2.9-3.4h-3.2V68.8h-7.2V14.1h11.1c4.7 0 9 2.5 9 9.7V35.3c0 3.3-1.4 5.7-4.2 7 2.8 1.3 4.4 3.8 4.4 7v12.2c0 2.5 0.4 4.2 1.2 5.6v2.1H231.6zM227.5 23.8c0-2.1-0.7-3.1-2.3-3.1h-3.5v18.4h3.1c1.7 0 2.6-1.1 2.6-3.4V23.8z"/></g></svg>