<svg xmlns="http://www.w3.org/2000/svg" version="1.1" id="Layer_1" x="0px" y="0px" width="236.5px" height="90.851px" viewBox="0 7.544 236.5 90.851" enable-background="new 0 7.544 236.5 90.851" xml:space="preserve"><desc>Jose Menor - Developer &amp; Designer</desc><g fill="#555"><path d="M11.44 69.193c-5.933 0-9.915-4.065-9.915-10.284V47.268h6.745v11.88c0 2.072 0.976 3.269 2.926 3.269 1.951 0 2.926-1.196 2.926-3.269v-43.85h7.151v43.451C21.273 64.968 17.454 69.193 11.44 69.193zM36.147 69.193c-6.095 0-10.484-4.464-10.484-10.843V25.344c0-6.298 4.389-10.843 10.484-10.843S46.63 19.045 46.63 25.344V58.35C46.63 64.729 42.242 69.193 36.147 69.193zM39.479 24.706c0-1.993-1.219-3.428-3.332-3.428 -2.113 0-3.251 1.435-3.251 3.428v34.282c0 2.073 1.138 3.429 3.251 3.429 2.113 0 3.332-1.355 3.332-3.429V24.706zM60.529 69.193c-6.42 0-10.321-4.146-10.321-10.843v-5.74h6.501v5.979c0 2.791 1.219 4.465 3.576 4.465 2.519 0 3.738-1.595 3.738-4.226 0-4.943-1.951-8.93-5.689-14.351 -3.495-4.863-7.802-12.039-7.802-18.178 0-6.697 3.332-11.8 10.402-11.8 5.852 0 9.671 4.146 9.671 10.843v6.06h-6.42v-6.299c0-2.631-1.138-4.226-3.251-4.226 -2.032 0-3.495 1.355-3.495 3.827 0 5.9 2.032 8.69 6.095 14.749 4.145 5.979 7.396 11.96 7.396 18.099C70.931 65.925 65.73 69.193 60.529 69.193z"/><polygon points="92.224,21.836 92.224,15.298 82.285,15.298 85.043,9.57 79.355,9.57 77.837,15.298 74.914,15.298   74.914,68.396 92.224,68.396 92.224,61.779 81.984,61.779 81.984,44.159 89.136,44.159 89.136,37.861 81.984,37.861 81.984,21.836   "/><path d="M127.74 68.396V28.054l-1.219 10.684 -4.307 29.658h-5.445l-4.063-29.658 -1.138-10.684v40.342h-6.258V15.298h9.671l3.819 26.868 1.22 10.604 1.219-10.604 3.738-26.868h9.509v53.098H127.74zM139.608 68.396V15.298h17.311v6.538h-10.24v16.025h7.151v6.298h-7.151v17.62h10.24v6.617H139.608zM176.993 68.396l-7.639-25.433 -2.194-7.894v33.326h-6.42V15.298h6.664l6.826 25.512 2.031 7.973V15.298h6.339v53.098H176.993zM197.638 69.193c-6.095 0-10.483-4.464-10.483-10.843V25.344c0-6.298 4.389-10.843 10.483-10.843s10.483 4.544 10.483 10.843V58.35C208.121 64.729 203.732 69.193 197.638 69.193zM200.97 24.706c0-1.993-1.219-3.428-3.332-3.428s-3.251 1.435-3.251 3.428v34.282c0 2.073 1.138 3.429 3.251 3.429s3.332-1.355 3.332-3.429V24.706zM229.74 68.635c-2.601 0-3.657-3.189-3.657-7.016V48.943c0-1.834-0.975-3.27-2.844-3.27h-3.17v22.723h-7.151V15.298h10.972c4.632 0 8.939 2.471 8.939 9.408v11.162c0 3.189-1.382 5.501-4.146 6.777 2.764 1.275 4.308 3.668 4.308 6.777V61.22c0 2.393 0.406 4.066 1.219 5.422v1.993H229.74zM225.759 24.785c0-2.073-0.731-3.03-2.276-3.03h-3.413v17.859h3.089c1.706 0 2.601-1.037 2.601-3.27V24.785z"/><path d="M63.933 91.818h1.999v-9.471h-1.999v-1.188h5.078c4.429 0 6.698 2.341 6.698 5.744 0 3.276-1.999 6.104-6.536 6.104h-5.24V91.818zM69.19 91.818c3.025 0 4.357-1.314 4.357-4.915 0-3.151-1.351-4.556-4.537-4.556h-1.225v9.471H69.19zM78.909 88.991c0.054 2.035 0.937 3.043 2.521 3.043 1.009 0 1.765-0.432 2.269-1.53h0.864c-0.468 1.765-1.764 2.665-3.583 2.665 -2.521 0-3.942-1.818-3.942-4.195 0-2.467 1.71-4.357 4.051-4.357 2.467 0 3.565 2.197 3.511 4.375H78.909zM78.927 88.145h3.943c-0.126-1.53-0.647-2.575-1.908-2.575C79.827 85.57 79.071 86.291 78.927 88.145zM86.271 85.948h-1.152V84.76h4.357v1.188h-1.404l1.944 5.528h0.072l1.963-5.528H90.88V84.76h3.476v1.188h-1.045l-2.772 7.167h-1.585L86.271 85.948zM96.693 88.991c0.054 2.035 0.937 3.043 2.521 3.043 1.009 0 1.765-0.432 2.269-1.53h0.864c-0.468 1.765-1.764 2.665-3.583 2.665 -2.521 0-3.942-1.818-3.942-4.195 0-2.467 1.71-4.357 4.051-4.357 2.467 0 3.565 2.197 3.511 4.375H96.693zM96.711 88.145h3.943c-0.126-1.53-0.647-2.575-1.908-2.575C97.611 85.57 96.855 86.291 96.711 88.145zM103.335 91.818h1.494v-9.885h-1.494v-1.297h3.187v11.182h1.494v1.188h-4.681V91.818zM109.005 88.92c0-2.503 1.656-4.304 4.123-4.304 2.538 0 4.104 1.729 4.104 4.231 0 2.521-1.656 4.321-4.104 4.321C110.553 93.169 109.005 91.44 109.005 88.92zM115.36 88.884c0-2.269-0.882-3.295-2.322-3.295 -1.423 0-2.161 1.026-2.161 3.295s0.882 3.312 2.322 3.312C114.604 92.196 115.36 91.152 115.36 88.884zM118.22 94.591h1.314v-8.643h-1.314V84.76h2.972v1.891c0.594-1.44 1.674-2.035 2.772-2.035 0.864 0 1.566 0.324 2.106 0.864 0.756 0.757 1.099 1.927 1.099 3.277s-0.45 2.593-1.207 3.349c-0.558 0.559-1.313 0.9-2.088 0.9 -1.261 0-2.143-0.666-2.647-1.549v3.133h1.729v1.188h-4.735V94.591zM125.296 88.668c0-1.999-0.828-2.917-1.944-2.917 -1.044 0-2.16 1.314-2.16 3.205 0 1.638 0.72 2.916 2.106 2.916C124.576 91.872 125.296 90.756 125.296 88.668zM130.425 88.991c0.055 2.035 0.937 3.043 2.521 3.043 1.009 0 1.765-0.432 2.27-1.53h0.864c-0.469 1.765-1.765 2.665-3.583 2.665 -2.521 0-3.943-1.818-3.943-4.195 0-2.467 1.71-4.357 4.051-4.357 2.467 0 3.565 2.197 3.512 4.375H130.425zM130.443 88.145h3.943c-0.127-1.53-0.648-2.575-1.909-2.575C131.344 85.57 130.587 86.291 130.443 88.145zM137.354 91.818h1.314v-5.87h-1.314V84.76h2.971v1.908c0.415-1.387 1.495-2.017 2.432-2.017 0.918 0 1.44 0.63 1.44 1.404 0 0.63-0.469 1.171-1.081 1.171 -0.63 0-1.134-0.379-1.134-1.062 0-0.09 0.018-0.198 0.036-0.307 -0.811-0.036-1.369 0.883-1.657 1.963v3.997h1.566v1.188h-4.573V91.818zM160.29 86.165v1.098h-1.369c-0.558 1.188-1.242 2.305-2.179 3.403 0.702 1.152 0.99 1.368 1.477 1.368 0.433 0 0.721-0.233 1.062-1.008l0.792 0.342c-0.414 1.152-1.188 1.927-2.395 1.927 -1.026 0-1.53-0.378-2.215-1.585 -0.972 1.009-1.998 1.585-3.331 1.585 -2.538 0-3.564-1.603-3.564-2.935 0-1.603 0.954-2.665 2.935-3.512 -0.702-0.756-1.134-1.512-1.134-2.34 0-1.765 1.332-2.846 3.061-2.846 1.675 0 2.646 1.026 2.646 2.233 0 1.35-0.972 2.124-2.377 2.898 1.062 1.044 1.801 1.98 2.449 3.007 0.612-0.756 1.152-1.639 1.513-2.539h-1.387v-1.098H160.29zM154.906 90.864c-0.666-1.116-1.44-2.089-2.755-3.385 -1.188 0.612-1.711 1.314-1.711 2.431s0.792 2.106 2.143 2.106C153.483 92.016 154.186 91.62 154.906 90.864zM153.105 86.219c0.918-0.576 1.477-1.242 1.477-2.125 0-0.737-0.378-1.458-1.314-1.458 -0.811 0-1.351 0.54-1.351 1.387C151.917 84.562 152.169 85.228 153.105 86.219zM164.623 91.818h1.999v-9.471h-1.999v-1.188h5.078c4.429 0 6.697 2.341 6.697 5.744 0 3.276-1.998 6.104-6.536 6.104h-5.239V91.818zM169.881 91.818c3.024 0 4.357-1.314 4.357-4.915 0-3.151-1.351-4.556-4.537-4.556h-1.225v9.471H169.881zM179.6 88.991c0.055 2.035 0.937 3.043 2.521 3.043 1.008 0 1.764-0.432 2.269-1.53h0.864c-0.469 1.765-1.765 2.665-3.583 2.665 -2.521 0-3.943-1.818-3.943-4.195 0-2.467 1.71-4.357 4.051-4.357 2.467 0 3.565 2.197 3.511 4.375H179.6zM179.618 88.145h3.942c-0.126-1.53-0.647-2.575-1.908-2.575C180.519 85.57 179.762 86.291 179.618 88.145zM186.709 90.053h1.098c0.45 1.314 1.477 2.232 2.629 2.232 0.973 0 1.387-0.485 1.387-1.152 0-0.72-0.559-1.062-2.179-1.512 -1.98-0.559-2.791-1.242-2.791-2.557 0-1.333 1.152-2.449 2.845-2.449 0.847 0 1.603 0.324 1.999 0.954l0.18-0.954h1.062v2.827h-1.08c-0.559-1.206-1.08-1.944-2.197-1.944 -0.63 0-1.278 0.359-1.278 1.044 0 0.72 0.631 1.099 2.107 1.494 1.908 0.522 2.809 1.135 2.809 2.539 0 1.242-1.099 2.593-2.953 2.593 -1.026 0-1.872-0.433-2.395-1.08l-0.198 1.08h-1.044V90.053zM194.574 91.818h1.495v-5.87h-1.495V84.76h3.188v7.058h1.494v1.188h-4.682V91.818zM195.637 81.861c0-0.72 0.469-1.225 1.171-1.225s1.17 0.469 1.17 1.188c0 0.721-0.468 1.207-1.17 1.207S195.637 82.582 195.637 81.861zM203.811 89.927c-0.396 0-0.738-0.054-1.081-0.054 -0.576 0-0.864 0.378-0.864 0.72 0 0.433 0.307 0.721 1.207 0.721h2.179c1.891 0 2.629 0.846 2.629 1.998 0 1.459-1.405 2.701-4.286 2.701 -2.214 0-3.637-0.774-3.637-1.854 0-0.756 0.702-1.477 1.729-1.603v-0.09c-0.973-0.324-1.314-0.864-1.314-1.459 0-0.611 0.685-1.296 1.549-1.476 -0.9-0.433-1.477-1.117-1.477-2.215 0-1.729 1.458-2.701 3.367-2.701 0.45 0 0.9 0.072 1.296 0.198 0.54-0.918 1.333-1.603 2.305-1.603 0.702 0 1.171 0.432 1.171 1.026 0 0.504-0.36 0.9-0.828 0.9 -0.486 0-0.774-0.288-0.774-0.738 0-0.054 0-0.126 0.018-0.198 -0.324-0.072-0.864 0.36-1.17 0.918 0.81 0.469 1.332 1.207 1.332 2.107C207.159 88.973 205.719 89.927 203.811 89.927zM206.403 93.745c0-0.576-0.324-0.973-1.261-0.973h-2.017c-1.08 0-1.584 0.379-1.584 1.116 0 0.612 0.414 1.207 2.16 1.207C205.287 95.095 206.403 94.573 206.403 93.745zM205.395 87.262c0-1.044-0.594-1.818-1.656-1.818 -1.026 0-1.549 0.559-1.549 1.837s0.631 1.818 1.675 1.818C204.873 89.099 205.395 88.487 205.395 87.262zM208.758 91.818h1.314v-5.87h-1.314V84.76h2.971v2.088c0.937-1.548 1.909-2.196 3.098-2.196 1.314 0 2.196 0.954 2.196 2.575v4.591h1.314v1.188h-4.213v-1.188h1.206v-3.979c0-0.611-0.145-1.134-0.45-1.44 -0.234-0.233-0.558-0.359-0.973-0.359 -1.008 0-2.143 0.99-2.143 2.646v3.133h1.207v1.188h-4.214V91.818zM221.125 88.991c0.055 2.035 0.937 3.043 2.521 3.043 1.008 0 1.764-0.432 2.269-1.53h0.864c-0.469 1.765-1.765 2.665-3.583 2.665 -2.521 0-3.943-1.818-3.943-4.195 0-2.467 1.71-4.357 4.051-4.357 2.467 0 3.565 2.197 3.511 4.375H221.125zM221.144 88.145h3.942c-0.126-1.53-0.647-2.575-1.908-2.575C222.044 85.57 221.287 86.291 221.144 88.145zM228.054 91.818h1.314v-5.87h-1.314V84.76h2.972v1.908c0.414-1.387 1.494-2.017 2.431-2.017 0.918 0 1.44 0.63 1.44 1.404 0 0.63-0.469 1.171-1.081 1.171 -0.63 0-1.134-0.379-1.134-1.062 0-0.09 0.018-0.198 0.036-0.307 -0.811-0.036-1.369 0.883-1.657 1.963v3.997h1.566v1.188h-4.573V91.818z"/></g></svg>